<?xml version="1.0" encoding="UTF-8"?> <svg xmlns="http://www.w3.org/2000/svg" width="500pt" height="500pt" viewBox="0 0 500 500" version="1.1"><g id="#91140bff"><path fill="#91140b" opacity="1.00" d=" M 110.54 64.01 C 218.52 63.98 326.51 64.01 434.50 64.00 C 434.49 172.13 434.51 280.27 434.49 388.40 C 419.13 388.41 403.76 388.40 388.40 388.41 C 295.80 388.43 203.20 388.39 110.60 388.36 C 110.53 295.76 110.55 203.16 110.54 110.55 C 110.54 95.04 110.54 79.53 110.54 64.01 M 148.48 202.47 C 147.69 207.61 148.03 212.81 148.00 217.99 C 147.99 252.00 148.02 286.00 147.99 320.01 C 148.01 324.86 147.70 329.74 148.40 334.57 C 149.31 331.80 148.98 328.85 149.03 325.99 C 149.00 288.00 149.01 250.01 149.02 212.02 C 148.94 208.83 149.53 205.56 148.48 202.47 M 149.37 203.25 C 149.80 209.14 149.78 215.06 149.62 220.96 C 149.93 245.64 149.62 270.32 149.77 295.00 C 149.60 308.10 149.96 321.21 149.46 334.29 C 158.12 334.28 166.77 334.25 175.42 334.30 C 175.62 333.76 176.03 332.67 176.23 332.13 C 176.16 314.73 176.41 297.34 176.15 279.95 C 175.42 270.67 175.53 261.31 175.66 252.01 C 179.76 259.00 182.68 266.62 186.22 273.91 C 190.00 282.35 194.11 290.65 197.82 299.14 C 202.00 308.38 206.14 317.65 210.26 326.92 C 211.19 329.13 212.11 331.35 212.95 333.60 C 216.61 333.81 220.29 333.63 223.93 334.15 C 229.76 334.33 235.60 334.28 241.44 334.35 C 241.57 290.66 241.42 246.97 241.52 203.28 C 232.75 203.19 223.98 203.26 215.21 203.24 C 215.46 215.16 214.12 227.10 215.11 239.00 C 214.12 245.32 215.46 251.66 215.23 258.00 C 215.12 267.13 215.48 276.27 215.11 285.39 C 213.43 283.12 212.26 280.53 211.24 277.91 C 207.44 269.61 203.56 261.36 199.78 253.06 C 192.17 236.59 184.85 219.99 177.47 203.42 C 168.10 203.42 158.73 203.16 149.37 203.25 M 253.77 203.32 C 260.72 217.45 267.49 231.68 274.22 245.92 C 277.36 253.07 281.14 259.91 284.41 266.99 C 284.23 267.68 283.88 269.07 283.70 269.76 C 276.16 286.97 267.75 303.78 259.77 320.79 C 257.87 325.06 255.86 329.28 253.99 333.57 C 254.72 333.73 256.17 334.07 256.89 334.24 C 266.28 334.12 275.67 334.38 285.06 334.24 C 287.16 334.37 287.49 331.72 288.22 330.27 C 291.70 320.81 295.46 311.46 299.26 302.12 C 300.30 299.51 301.34 296.89 302.29 294.24 C 302.70 294.29 303.51 294.39 303.92 294.45 C 306.37 300.73 309.35 306.79 311.80 313.08 C 314.78 320.13 317.30 327.38 320.54 334.33 C 331.35 334.21 342.16 334.32 352.98 334.27 C 351.86 331.42 350.56 328.65 349.22 325.90 C 340.36 307.69 332.15 289.15 322.72 271.21 C 321.67 269.53 322.65 267.68 323.16 266.02 C 327.94 254.96 333.10 244.08 338.20 233.17 C 342.85 223.23 347.69 213.38 351.98 203.28 C 341.23 203.22 330.47 203.21 319.72 203.28 C 317.75 208.50 315.80 213.72 313.70 218.89 C 312.90 220.95 312.06 223.00 311.23 225.06 C 308.75 230.77 306.12 236.41 303.16 241.89 C 302.83 241.79 302.15 241.59 301.81 241.49 C 300.99 239.29 300.14 237.09 299.28 234.90 C 298.60 233.24 297.94 231.58 297.30 229.91 C 294.16 222.25 291.20 214.52 288.09 206.84 C 287.73 205.70 287.39 204.56 287.07 203.42 C 275.98 203.09 264.87 203.25 253.77 203.32 Z"></path></g><g id="#009999ff"><path fill="#009999" opacity="1.00" d=" M 64.01 110.54 C 79.52 110.55 95.03 110.53 110.54 110.55 C 110.55 203.16 110.53 295.76 110.60 388.36 C 203.20 388.39 295.80 388.43 388.40 388.41 C 388.41 403.77 388.40 419.13 388.41 434.49 C 280.27 434.50 172.14 434.50 64.00 434.50 C 64.01 326.51 63.98 218.53 64.01 110.54 Z"></path></g><g id="#871d16e3"><path fill="#871d16" opacity="0.89" d=" M 148.48 202.47 C 149.53 205.56 148.94 208.83 149.02 212.02 C 149.01 250.01 149.00 288.00 149.03 325.99 C 148.98 328.85 149.31 331.80 148.40 334.57 C 147.70 329.74 148.01 324.86 147.99 320.01 C 148.02 286.00 147.99 252.00 148.00 217.99 C 148.03 212.81 147.69 207.61 148.48 202.47 Z"></path></g><g id="#ffffffff"><path fill="#ffffff" opacity="1.00" d=" M 149.37 203.25 C 158.73 203.16 168.10 203.42 177.47 203.42 C 184.85 219.99 192.17 236.59 199.78 253.06 C 203.56 261.36 207.44 269.61 211.24 277.91 C 212.26 280.53 213.43 283.12 215.11 285.39 C 215.48 276.27 215.12 267.13 215.23 258.00 C 215.46 251.66 214.12 245.32 215.11 239.00 C 214.12 227.10 215.46 215.16 215.21 203.24 C 223.98 203.26 232.75 203.19 241.52 203.28 C 241.42 246.97 241.57 290.66 241.44 334.35 C 235.60 334.28 229.76 334.33 223.93 334.15 C 220.29 333.63 216.61 333.81 212.95 333.60 C 212.11 331.35 211.19 329.13 210.26 326.92 C 206.14 317.65 202.00 308.38 197.82 299.14 C 194.11 290.65 190.00 282.35 186.22 273.91 C 182.68 266.62 179.76 259.00 175.66 252.01 C 175.53 261.31 175.42 270.67 176.15 279.95 C 176.41 297.34 176.16 314.73 176.23 332.13 C 176.03 332.67 175.62 333.76 175.42 334.30 C 166.77 334.25 158.12 334.28 149.46 334.29 C 149.96 321.21 149.60 308.10 149.77 295.00 C 149.62 270.32 149.93 245.64 149.62 220.96 C 149.78 215.06 149.80 209.14 149.37 203.25 Z"></path><path fill="#ffffff" opacity="1.00" d=" M 253.77 203.32 C 264.87 203.25 275.98 203.09 287.07 203.42 C 287.39 204.56 287.73 205.70 288.09 206.84 C 291.20 214.52 294.16 222.25 297.30 229.91 C 297.94 231.58 298.60 233.24 299.28 234.90 C 300.14 237.09 300.99 239.29 301.81 241.49 C 302.15 241.59 302.83 241.79 303.16 241.89 C 306.12 236.41 308.75 230.77 311.23 225.06 C 312.06 223.00 312.90 220.95 313.70 218.89 C 315.80 213.72 317.75 208.50 319.72 203.28 C 330.47 203.21 341.23 203.22 351.98 203.28 C 347.69 213.38 342.85 223.23 338.20 233.17 C 333.10 244.08 327.94 254.96 323.16 266.02 C 322.65 267.68 321.67 269.53 322.72 271.21 C 332.15 289.15 340.36 307.69 349.22 325.90 C 350.56 328.65 351.86 331.42 352.98 334.27 C 342.16 334.32 331.35 334.21 320.54 334.33 C 317.30 327.38 314.78 320.13 311.80 313.08 C 309.35 306.79 306.37 300.73 303.92 294.45 C 303.51 294.39 302.70 294.29 302.29 294.24 C 301.34 296.89 300.30 299.51 299.26 302.12 C 295.46 311.46 291.70 320.81 288.22 330.27 C 287.49 331.72 287.16 334.37 285.06 334.24 C 275.67 334.38 266.28 334.12 256.89 334.24 C 256.17 334.07 254.72 333.73 253.99 333.57 C 255.86 329.28 257.87 325.06 259.77 320.79 C 267.75 303.78 276.16 286.97 283.70 269.76 C 283.88 269.07 284.23 267.68 284.41 266.99 C 281.14 259.91 277.36 253.07 274.22 245.92 C 267.49 231.68 260.72 217.45 253.77 203.32 Z"></path></g></svg> 